<svg xmlns="http://www.w3.org/2000/svg" width="682.667" height="682.667" viewBox="0 0 512 512" preserveAspectRatio="xMidYMid meet" xmlns:v="https://vecta.io/nano"><path d="M83.2 65.4c-13.3 3.3-27.5 14.3-33.9 26.3-6.1 11.3-6.3 13.4-6.3 59.4v41.6l-4.2 1.2c-8.6 2.6-17.7 8.2-23.8 14.8-7.2 7.6-10.2 13.2-12.9 24.1-2.5 9.4-2.6 15.4-.7 21 .8 2.2 1.7 6.6 2.1 9.8.9 9 2.4 18.4 5.5 34.9 1.6 8.2 3.1 17 3.5 19.5s2.2 12.6 4 22.5l9.5 51.9c3.9 21.5 6.8 35.3 8.1 37.8 5 9.8 14.9 16.5 25.6 17.5 3.2.3 13.9-.2 23.8-1.1 37.6-3.3 70.1-4.1 159.5-3.8 148.7.3 180.8 1.1 190.9 4.3 1.9.7 7.3.9 12.5.7 10.5-.5 16.1-2.6 22.6-8.4 7.8-7 9.5-12.6 14-44.9l3.5-23.5c1.5-8.7 7.3-46.3 12.5-81l8-51.4c5.4-34.8 5.8-39.2 3.5-48.1-4.8-18.4-17.2-32.1-34.4-38.1l-6.6-2.3-.5-10.3c-.4-6.2-1.2-11.8-2.2-14-2.2-5-9.2-12.3-14.7-15.6l-4.6-2.7-97.5-.5-97.5-.5-5.9-2.7c-4.4-2.1-9.3-6.2-20-16.6-15.3-14.9-21.5-19-32.7-21.7-8.6-2-102.3-2.1-110.7-.1zm112.3 23.5c3.1 1.6 10.1 7.5 19 16.2 10.2 9.9 15.7 14.5 20.3 16.8 12.5 6.3 8.5 6.1 111 6.1 102.4 0 97.4-.3 100.7 6 .8 1.6 1.5 5.5 1.5 8.9v6l-89.7.4c-81.6.3-90.3.4-95.8 2-3.3 1-22.4 9.9-42.5 19.8-27.7 13.6-38.2 18.3-43.5 19.4-5.6 1.2-17.6 1.5-59.8 1.5H63.9l.3-41.3c.3-39.9.4-41.3 2.5-45.9 3.2-6.9 9-12.7 15.8-16l6-2.8 51 .2 51 .3 5 2.4zm276.7 84.9c10.5 5.2 17 14.9 17.6 26.3.3 4.9-3.6 32.7-15.7 112l-17.3 108.1c-.5 1.5-2.2 3.5-3.7 4.5-2.5 1.7-11.5 1.8-198.1 1.8-187.9 0-195.6-.1-198.2-1.8-1.5-1-3.1-3.3-3.7-5-.6-1.8-7.8-40.8-16.2-86.7-16.9-93.2-16.8-92.8-11.4-102.9 3.5-6.4 8.1-10.6 15.5-14l5.5-2.6 67.5-.5 67.5-.5 7.7-2.7c4.3-1.5 22.6-10.2 40.8-19.3 18.3-9.1 35.5-17.2 38.3-18 4.3-1.2 21.6-1.4 102.2-1.2l97 .2 4.7 2.3z"/></svg>