<svg xmlns="http://www.w3.org/2000/svg" width="682.667" height="682.667" viewBox="0 0 512 512" preserveAspectRatio="xMidYMid meet" fill="#d747dd" xmlns:v="https://vecta.io/nano"><path d="M25.8 42C15.6 43.8 7.5 50.4 2.7 60.7.5 65.4.5 66.3.2 114.2L-.1 163h256H512v-14.3c0-15.6-1.2-24.2-4-29.7-2.4-4.6-8.4-10.3-14-13.2l-4.5-2.3-103-.6-107.5-1.7c-16.4-4.1-18.5-5.5-37-24.3-20.5-20.8-26.6-25-44-30-16.5-4.9-21.2-5.1-96.5-5.5-39-.1-73.1.1-75.7.6zM.2 315.7L1.9 450c3.6 9 10.8 16.1 19.6 19.1 6 2.1 463 2.1 469 0 8.8-3 16-10.1 19.6-19.1 1.2-2.9 1.4-24.6 1.7-134.3L512 185H256 0l.2 130.7z"/></svg>