<?xml version="1.0" standalone="no"?>
<!DOCTYPE svg PUBLIC "-//W3C//DTD SVG 20010904//EN"
 "http://www.w3.org/TR/2001/REC-SVG-20010904/DTD/svg10.dtd">
<svg version="1.0" xmlns="http://www.w3.org/2000/svg"
 width="50.000000pt" height="50.000000pt" viewBox="0 0 50.000000 50.000000"
 preserveAspectRatio="xMidYMid meet">

<g transform="translate(0.000000,50.000000) scale(0.100000,-0.100000)"
fill="#000000" stroke="none">
<path d="M88 289 c-25 -14 -24 -65 1 -79 31 -16 49 -12 67 15 15 23 15 27 0
50 -17 26 -40 31 -68 14z"/>
<path d="M216 284 c-31 -30 -9 -84 34 -84 24 0 50 26 50 50 0 24 -26 50 -50
50 -10 0 -26 -7 -34 -16z"/>
<path d="M344 275 c-15 -23 -15 -27 0 -50 28 -43 86 -26 86 25 0 51 -58 68
-86 25z"/>
</g>
</svg>
